<svg width="25" height="25" viewBox="0 0 25 25" fill="none" xmlns="http://www.w3.org/2000/svg">
<g clip-path="url(#clip0_7_3719)">
<path d="M12.5 0C5.61724 0 0 5.61763 0 12.5C0 19.3828 5.61763 25 12.5 25C19.3828 25 25 19.3823 25 12.5C25 5.61724 19.3824 0 12.5 0ZM12.5 23.5352C6.41519 23.5352 1.46484 18.5848 1.46484 12.5C1.46484 6.41519 6.41519 1.46484 12.5 1.46484C18.5848 1.46484 23.5352 6.41519 23.5352 12.5C23.5352 18.5848 18.5848 23.5352 12.5 23.5352Z" fill="url(#paint0_linear_7_3719)"/>
<path d="M6.28516 19.4472C6.68966 19.4472 7.01758 19.1193 7.01758 18.7148C7.01758 18.3103 6.68966 17.9824 6.28516 17.9824C5.88065 17.9824 5.55273 18.3103 5.55273 18.7148C5.55273 19.1193 5.88065 19.4472 6.28516 19.4472Z" fill="url(#paint1_linear_7_3719)"/>
<path d="M18.7148 7.01762C19.1193 7.01762 19.4473 6.68971 19.4473 6.2852C19.4473 5.8807 19.1193 5.55278 18.7148 5.55278C18.3103 5.55278 17.9824 5.8807 17.9824 6.2852C17.9824 6.68971 18.3103 7.01762 18.7148 7.01762Z" fill="url(#paint2_linear_7_3719)"/>
<path d="M5.76726 5.76729C5.48123 6.05333 5.48123 6.51705 5.76726 6.80308C6.0533 7.08912 6.51702 7.08912 6.80305 6.80308C7.08909 6.51705 7.08909 6.05333 6.80305 5.76729C6.51707 5.48126 6.0533 5.48126 5.76726 5.76729Z" fill="url(#paint3_linear_7_3719)"/>
<path d="M18.1969 18.1969C17.9109 18.483 17.9109 18.9467 18.1969 19.2327C18.483 19.5187 18.9467 19.5187 19.2327 19.2327C19.5188 18.9467 19.5188 18.483 19.2327 18.1969C18.9467 17.9109 18.4829 17.9109 18.1969 18.1969Z" fill="url(#paint4_linear_7_3719)"/>
<path d="M12.5 5.9082C12.9045 5.9082 13.2324 5.58027 13.2324 5.17578V3.71094C13.2324 3.30645 12.9045 2.97852 12.5 2.97852C12.0955 2.97852 11.7676 3.30645 11.7676 3.71094V5.17578C11.7676 5.58027 12.0955 5.9082 12.5 5.9082Z" fill="url(#paint5_linear_7_3719)"/>
<path d="M12.5 19.0918C12.0955 19.0918 11.7676 19.4197 11.7676 19.8242V21.2891C11.7676 21.6936 12.0955 22.0215 12.5 22.0215C12.9045 22.0215 13.2324 21.6936 13.2324 21.2891V19.8242C13.2324 19.4197 12.9045 19.0918 12.5 19.0918Z" fill="url(#paint6_linear_7_3719)"/>
<path d="M5.9082 12.5C5.9082 12.0955 5.58027 11.7676 5.17578 11.7676H3.71094C3.30645 11.7676 2.97852 12.0955 2.97852 12.5C2.97852 12.9045 3.30645 13.2324 3.71094 13.2324H5.17578C5.58027 13.2324 5.9082 12.9045 5.9082 12.5Z" fill="url(#paint7_linear_7_3719)"/>
<path d="M19.0918 12.5C19.0918 12.9045 19.4197 13.2324 19.8242 13.2324H21.2891C21.6936 13.2324 22.0215 12.9045 22.0215 12.5C22.0215 12.0955 21.6936 11.7676 21.2891 11.7676H19.8242C19.4197 11.7676 19.0918 12.0955 19.0918 12.5Z" fill="url(#paint8_linear_7_3719)"/>
<path d="M13.2324 12.1966V8.10547C13.2324 7.70098 12.9045 7.37305 12.5 7.37305C12.0955 7.37305 11.7676 7.70098 11.7676 8.10547V12.5C11.7676 12.6942 11.8448 12.8805 11.9821 13.0179L16.3767 17.4125C16.6626 17.6984 17.1264 17.6985 17.4125 17.4125C17.6985 17.1264 17.6985 16.6627 17.4125 16.3767L13.2324 12.1966Z" fill="url(#paint9_linear_7_3719)"/>
</g>
<defs>
<linearGradient id="paint0_linear_7_3719" x1="0" y1="12.5" x2="25" y2="12.5" gradientUnits="userSpaceOnUse">
<stop stop-color="#5433FF"/>
<stop offset="0.5" stop-color="#20BDFF"/>
<stop offset="1" stop-color="#259EA6"/>
</linearGradient>
<linearGradient id="paint1_linear_7_3719" x1="5.55273" y1="18.7148" x2="7.01758" y2="18.7148" gradientUnits="userSpaceOnUse">
<stop stop-color="#5433FF"/>
<stop offset="0.5" stop-color="#20BDFF"/>
<stop offset="1" stop-color="#259EA6"/>
</linearGradient>
<linearGradient id="paint2_linear_7_3719" x1="17.9824" y1="6.2852" x2="19.4473" y2="6.2852" gradientUnits="userSpaceOnUse">
<stop stop-color="#5433FF"/>
<stop offset="0.5" stop-color="#20BDFF"/>
<stop offset="1" stop-color="#259EA6"/>
</linearGradient>
<linearGradient id="paint3_linear_7_3719" x1="5.55273" y1="6.28519" x2="7.01758" y2="6.28519" gradientUnits="userSpaceOnUse">
<stop stop-color="#5433FF"/>
<stop offset="0.5" stop-color="#20BDFF"/>
<stop offset="1" stop-color="#259EA6"/>
</linearGradient>
<linearGradient id="paint4_linear_7_3719" x1="17.9824" y1="18.7148" x2="19.4473" y2="18.7148" gradientUnits="userSpaceOnUse">
<stop stop-color="#5433FF"/>
<stop offset="0.5" stop-color="#20BDFF"/>
<stop offset="1" stop-color="#259EA6"/>
</linearGradient>
<linearGradient id="paint5_linear_7_3719" x1="11.7676" y1="4.44336" x2="13.2324" y2="4.44336" gradientUnits="userSpaceOnUse">
<stop stop-color="#5433FF"/>
<stop offset="0.5" stop-color="#20BDFF"/>
<stop offset="1" stop-color="#259EA6"/>
</linearGradient>
<linearGradient id="paint6_linear_7_3719" x1="11.7676" y1="20.5566" x2="13.2324" y2="20.5566" gradientUnits="userSpaceOnUse">
<stop stop-color="#5433FF"/>
<stop offset="0.5" stop-color="#20BDFF"/>
<stop offset="1" stop-color="#259EA6"/>
</linearGradient>
<linearGradient id="paint7_linear_7_3719" x1="2.97852" y1="12.5" x2="5.9082" y2="12.5" gradientUnits="userSpaceOnUse">
<stop stop-color="#5433FF"/>
<stop offset="0.5" stop-color="#20BDFF"/>
<stop offset="1" stop-color="#259EA6"/>
</linearGradient>
<linearGradient id="paint8_linear_7_3719" x1="19.0918" y1="12.5" x2="22.0215" y2="12.5" gradientUnits="userSpaceOnUse">
<stop stop-color="#5433FF"/>
<stop offset="0.5" stop-color="#20BDFF"/>
<stop offset="1" stop-color="#259EA6"/>
</linearGradient>
<linearGradient id="paint9_linear_7_3719" x1="11.7676" y1="12.5" x2="17.627" y2="12.5" gradientUnits="userSpaceOnUse">
<stop stop-color="#5433FF"/>
<stop offset="0.5" stop-color="#20BDFF"/>
<stop offset="1" stop-color="#259EA6"/>
</linearGradient>
<clipPath id="clip0_7_3719">
<rect width="25" height="25" fill="white"/>
</clipPath>
</defs>
</svg>
