<svg width="384" height="129" viewBox="0 0 384 129" fill="none" xmlns="http://www.w3.org/2000/svg">
<path d="M319.402 32.0928C319.402 14.6511 333.741 0.500081 351.444 0.500079C369.146 0.500078 383.485 14.6511 383.485 32.0928C383.485 49.5345 369.146 63.6855 351.444 63.6855C333.741 63.6856 319.402 49.5345 319.402 32.0928Z" stroke="#3190FF" stroke-opacity="0.1"/>
<path d="M312.894 32.7327C312.894 15.291 327.233 1.13997 344.935 1.13997C362.638 1.13997 376.976 15.291 376.976 32.7327C376.976 50.1744 362.638 64.3254 344.935 64.3254C327.233 64.3254 312.894 50.1744 312.894 32.7327Z" stroke="#3190FF" stroke-opacity="0.1"/>
<path d="M306.386 34.6263C306.386 17.1846 320.725 3.03353 338.427 3.03353C356.13 3.03352 370.468 17.1846 370.468 34.6263C370.468 52.0679 356.13 66.219 338.427 66.219C320.725 66.219 306.386 52.0679 306.386 34.6263Z" stroke="#3190FF" stroke-opacity="0.1"/>
<path d="M299.878 37.698C299.878 20.2564 314.217 6.10531 331.919 6.1053C349.621 6.1053 363.96 20.2564 363.96 37.698C363.96 55.1397 349.621 69.2908 331.919 69.2908C314.217 69.2908 299.878 55.1397 299.878 37.698Z" stroke="#3190FF" stroke-opacity="0.1"/>
<path d="M293.37 41.8262C293.37 24.3845 307.708 10.2335 325.411 10.2335C343.113 10.2335 357.452 24.3845 357.452 41.8262C357.452 59.2679 343.113 73.4189 325.411 73.4189C307.708 73.4189 293.37 59.2679 293.37 41.8262Z" stroke="#3190FF" stroke-opacity="0.1"/>
<path d="M286.861 46.8457C286.861 29.4041 301.2 15.253 318.903 15.253C336.605 15.253 350.944 29.4041 350.944 46.8457C350.944 64.2874 336.605 78.4385 318.903 78.4385C301.2 78.4385 286.861 64.2874 286.861 46.8457Z" stroke="#3190FF" stroke-opacity="0.1"/>
<path d="M280.353 52.5564C280.353 35.1148 294.692 20.9637 312.394 20.9637C330.097 20.9637 344.435 35.1148 344.435 52.5564C344.435 69.9981 330.097 84.1492 312.394 84.1492C294.692 84.1492 280.353 69.9981 280.353 52.5564Z" stroke="#3190FF" stroke-opacity="0.1"/>
<path d="M273.845 58.7308C273.845 41.2891 288.184 27.138 305.886 27.138C323.588 27.138 337.927 41.2891 337.927 58.7308C337.927 76.1724 323.588 90.3235 305.886 90.3235C288.184 90.3235 273.845 76.1724 273.845 58.7308Z" stroke="#3190FF" stroke-opacity="0.1"/>
<path d="M267.337 65.1226C267.337 47.6809 281.676 33.5299 299.378 33.5299C317.08 33.5299 331.419 47.6809 331.419 65.1226C331.419 82.5643 317.08 96.7153 299.378 96.7153C281.676 96.7153 267.337 82.5643 267.337 65.1226Z" stroke="#3190FF" stroke-opacity="0.1"/>
<path d="M260.828 71.4771C260.828 54.0354 275.167 39.8844 292.87 39.8844C310.572 39.8844 324.911 54.0354 324.911 71.4771C324.911 88.9188 310.572 103.07 292.87 103.07C275.167 103.07 260.828 88.9188 260.828 71.4771Z" stroke="#3190FF" stroke-opacity="0.1"/>
<path d="M254.32 77.5408C254.32 60.0991 268.659 45.9481 286.361 45.9481C304.064 45.9481 318.402 60.0991 318.402 77.5408C318.402 94.9825 304.064 109.134 286.361 109.134C268.659 109.134 254.32 94.9825 254.32 77.5408Z" stroke="#3190FF" stroke-opacity="0.1"/>
<path d="M247.812 83.0721C247.812 65.6304 262.151 51.4793 279.853 51.4793C297.556 51.4793 311.894 65.6304 311.894 83.0721C311.894 100.514 297.556 114.665 279.853 114.665C262.151 114.665 247.812 100.514 247.812 83.0721Z" stroke="#3190FF" stroke-opacity="0.1"/>
<path d="M241.304 87.8506C241.304 70.409 255.643 56.2579 273.345 56.2579C291.047 56.2579 305.386 70.409 305.386 87.8506C305.386 105.292 291.047 119.443 273.345 119.443C255.643 119.443 241.304 105.292 241.304 87.8506Z" stroke="#3190FF" stroke-opacity="0.1"/>
<path d="M234.796 91.6856C234.796 74.2439 249.134 60.0929 266.837 60.0929C284.539 60.0929 298.878 74.2439 298.878 91.6856C298.878 109.127 284.539 123.278 266.837 123.278C249.134 123.278 234.796 109.127 234.796 91.6856Z" stroke="#3190FF" stroke-opacity="0.1"/>
<path d="M228.287 94.4241C228.287 76.9824 242.626 62.8314 260.329 62.8314C278.031 62.8314 292.37 76.9824 292.37 94.4241C292.37 111.866 278.031 126.017 260.329 126.017C242.626 126.017 228.287 111.866 228.287 94.4241Z" stroke="#3190FF" stroke-opacity="0.1"/>
<path d="M221.779 95.9571C221.779 78.5154 236.118 64.3643 253.82 64.3643C271.523 64.3643 285.861 78.5154 285.861 95.9571C285.861 113.399 271.523 127.55 253.82 127.55C236.118 127.55 221.779 113.399 221.779 95.9571Z" stroke="#3190FF" stroke-opacity="0.1"/>
<path d="M215.271 96.2234C215.271 78.7818 229.61 64.6307 247.312 64.6307C265.015 64.6307 279.353 78.7818 279.353 96.2234C279.353 113.665 265.015 127.816 247.312 127.816C229.61 127.816 215.271 113.665 215.271 96.2234Z" stroke="#3190FF" stroke-opacity="0.1"/>
<path d="M208.763 95.2127C208.763 77.771 223.102 63.62 240.804 63.62C258.506 63.62 272.845 77.771 272.845 95.2127C272.845 112.654 258.506 126.805 240.804 126.805C223.102 126.805 208.763 112.654 208.763 95.2127Z" stroke="#3190FF" stroke-opacity="0.1"/>
<path d="M202.255 92.9651C202.255 75.5235 216.593 61.3724 234.296 61.3724C251.998 61.3724 266.337 75.5235 266.337 92.9651C266.337 110.407 251.998 124.558 234.296 124.558C216.593 124.558 202.255 110.407 202.255 92.9651Z" stroke="#3190FF" stroke-opacity="0.1"/>
<path d="M195.746 89.5699C195.746 72.1282 210.085 57.9771 227.788 57.9771C245.49 57.9771 259.829 72.1282 259.829 89.5699C259.829 107.012 245.49 121.163 227.788 121.163C210.085 121.163 195.746 107.012 195.746 89.5699Z" stroke="#3190FF" stroke-opacity="0.1"/>
<path d="M189.238 85.1626C189.238 67.721 203.577 53.5699 221.279 53.5699C238.982 53.5699 253.32 67.721 253.32 85.1626C253.32 102.604 238.982 116.755 221.279 116.755C203.577 116.755 189.238 102.604 189.238 85.1626Z" stroke="#3190FF" stroke-opacity="0.1"/>
<path d="M182.73 79.9195C182.73 62.4778 197.069 48.3267 214.771 48.3267C232.473 48.3267 246.812 62.4778 246.812 79.9195C246.812 97.3611 232.473 111.512 214.771 111.512C197.069 111.512 182.73 97.3611 182.73 79.9195Z" stroke="#3190FF" stroke-opacity="0.1"/>
<path d="M176.222 74.0486C176.222 56.607 190.56 42.4559 208.263 42.4559C225.965 42.4559 240.304 56.607 240.304 74.0486C240.304 91.4903 225.965 105.641 208.263 105.641C190.56 105.641 176.222 91.4903 176.222 74.0486Z" stroke="#3190FF" stroke-opacity="0.1"/>
<path d="M169.714 67.785C169.714 50.3433 184.052 36.1922 201.755 36.1922C219.457 36.1922 233.796 50.3433 233.796 67.785C233.796 85.2266 219.457 99.3777 201.755 99.3777C184.052 99.3777 169.714 85.2266 169.714 67.785Z" stroke="#3190FF" stroke-opacity="0.1"/>
<path d="M163.205 61.3775C163.205 43.9358 177.544 29.7847 195.246 29.7847C212.949 29.7847 227.287 43.9358 227.287 61.3775C227.287 78.8191 212.949 92.9702 195.246 92.9702C177.544 92.9702 163.205 78.8192 163.205 61.3775Z" stroke="#3190FF" stroke-opacity="0.1"/>
<path d="M156.697 55.0821C156.697 37.6404 171.036 23.4893 188.738 23.4893C206.441 23.4893 220.779 37.6404 220.779 55.0821C220.779 72.5237 206.441 86.6748 188.738 86.6748C171.036 86.6748 156.697 72.5237 156.697 55.0821Z" stroke="#3190FF" stroke-opacity="0.1"/>
<path d="M150.189 49.1495C150.189 31.7078 164.528 17.5567 182.23 17.5567C199.932 17.5567 214.271 31.7078 214.271 49.1495C214.271 66.5911 199.932 80.7422 182.23 80.7422C164.528 80.7422 150.189 66.5911 150.189 49.1495Z" stroke="#3190FF" stroke-opacity="0.1"/>
<path d="M143.681 43.8165C143.681 26.3748 158.02 12.2237 175.722 12.2237C193.424 12.2237 207.763 26.3748 207.763 43.8164C207.763 61.2581 193.424 75.4092 175.722 75.4092C158.02 75.4092 143.681 61.2581 143.681 43.8165Z" stroke="#3190FF" stroke-opacity="0.1"/>
<path d="M137.172 39.2955C137.172 21.8538 151.511 7.70272 169.214 7.70272C186.916 7.70271 201.255 21.8538 201.255 39.2954C201.255 56.7371 186.916 70.8882 169.214 70.8882C151.511 70.8882 137.172 56.7371 137.172 39.2955Z" stroke="#3190FF" stroke-opacity="0.1"/>
<path d="M130.664 35.7669C130.664 18.3252 145.003 4.17415 162.705 4.17415C180.408 4.17415 194.746 18.3252 194.746 35.7669C194.746 53.2086 180.408 67.3596 162.705 67.3596C145.003 67.3596 130.664 53.2086 130.664 35.7669Z" stroke="#3190FF" stroke-opacity="0.1"/>
<path d="M124.156 33.3711C124.156 15.9295 138.495 1.7784 156.197 1.7784C173.9 1.7784 188.238 15.9295 188.238 33.3711C188.238 50.8128 173.9 64.9639 156.197 64.9639C138.495 64.9639 124.156 50.8128 124.156 33.3711Z" stroke="#3190FF" stroke-opacity="0.1"/>
<path d="M117.648 32.2039C117.648 14.7622 131.987 0.611165 149.689 0.611163C167.391 0.611162 181.73 14.7622 181.73 32.2039C181.73 49.6456 167.391 63.7966 149.689 63.7966C131.987 63.7966 117.648 49.6456 117.648 32.2039Z" stroke="#3190FF" stroke-opacity="0.1"/>
<path d="M111.14 32.3116C111.14 14.8699 125.478 0.718831 143.181 0.718829C160.883 0.718828 175.222 14.8699 175.222 32.3116C175.222 49.7532 160.883 63.9043 143.181 63.9043C125.478 63.9043 111.14 49.7532 111.14 32.3116Z" stroke="#3190FF" stroke-opacity="0.1"/>
<path d="M104.631 33.69C104.631 16.2483 118.97 2.09725 136.673 2.09725C154.375 2.09725 168.714 16.2483 168.714 33.69C168.714 51.1316 154.375 65.2827 136.673 65.2827C118.97 65.2827 104.631 51.1317 104.631 33.69Z" stroke="#3190FF" stroke-opacity="0.1"/>
<path d="M98.1232 36.2845C98.1232 18.8428 112.462 4.69173 130.164 4.69173C147.867 4.69173 162.205 18.8428 162.205 36.2845C162.205 53.7261 147.867 67.8772 130.164 67.8772C112.462 67.8772 98.1232 53.7261 98.1232 36.2845Z" stroke="#3190FF" stroke-opacity="0.1"/>
<path d="M91.6149 39.9908C91.6149 22.5491 105.954 8.39803 123.656 8.39803C141.358 8.39803 155.697 22.5491 155.697 39.9908C155.697 57.4324 141.358 71.5835 123.656 71.5835C105.954 71.5835 91.6149 57.4324 91.6149 39.9908Z" stroke="#3190FF" stroke-opacity="0.1"/>
<path d="M85.1068 44.6619C85.1068 27.2202 99.4455 13.0692 117.148 13.0692C134.85 13.0692 149.189 27.2202 149.189 44.6619C149.189 62.1036 134.85 76.2546 117.148 76.2546C99.4455 76.2546 85.1068 62.1036 85.1068 44.6619Z" stroke="#3190FF" stroke-opacity="0.1"/>
<path d="M78.5985 50.1114C78.5985 32.6697 92.9372 18.5186 110.64 18.5186C128.342 18.5186 142.681 32.6697 142.681 50.1114C142.681 67.553 128.342 81.7041 110.64 81.7041C92.9372 81.7041 78.5985 67.553 78.5985 50.1114Z" stroke="#3190FF" stroke-opacity="0.1"/>
<path d="M72.0902 56.1219C72.0902 38.6802 86.4289 24.5291 104.131 24.5291C121.834 24.5291 136.172 38.6802 136.172 56.1219C136.172 73.5635 121.834 87.7146 104.131 87.7146C86.4289 87.7146 72.0902 73.5635 72.0902 56.1219Z" stroke="#3190FF" stroke-opacity="0.1"/>
<path d="M65.5822 62.4541C65.5822 45.0125 79.9209 30.8614 97.6232 30.8614C115.326 30.8614 129.664 45.0125 129.664 62.4541C129.664 79.8958 115.326 94.0469 97.6232 94.0469C79.9209 94.0469 65.5822 79.8958 65.5822 62.4541Z" stroke="#3190FF" stroke-opacity="0.1"/>
<path d="M59.0739 68.855C59.0739 51.4134 73.4126 37.2623 91.1149 37.2623C108.817 37.2623 123.156 51.4133 123.156 68.855C123.156 86.2967 108.817 100.448 91.1149 100.448C73.4126 100.448 59.0739 86.2967 59.0739 68.855Z" stroke="#3190FF" stroke-opacity="0.1"/>
<path d="M52.5656 75.0701C52.5656 57.6284 66.9043 43.4774 84.6066 43.4774C102.309 43.4774 116.648 57.6284 116.648 75.0701C116.648 92.5118 102.309 106.663 84.6066 106.663C66.9043 106.663 52.5656 92.5118 52.5656 75.0701Z" stroke="#3190FF" stroke-opacity="0.1"/>
<path d="M46.0575 80.8511C46.0575 63.4094 60.3962 49.2584 78.0986 49.2584C95.8009 49.2584 110.14 63.4094 110.14 80.8511C110.14 98.2928 95.8009 112.444 78.0986 112.444C60.3962 112.444 46.0575 98.2928 46.0575 80.8511Z" stroke="#3190FF" stroke-opacity="0.1"/>
<path d="M39.5492 85.9676C39.5492 68.5259 53.8879 54.3748 71.5903 54.3748C89.2926 54.3748 103.631 68.5259 103.631 85.9676C103.631 103.409 89.2926 117.56 71.5903 117.56C53.8879 117.56 39.5492 103.409 39.5492 85.9676Z" stroke="#3190FF" stroke-opacity="0.1"/>
<path d="M33.0409 90.2159C33.0409 72.7742 47.3796 58.6231 65.082 58.6231C82.7843 58.6231 97.123 72.7742 97.123 90.2159C97.123 107.658 82.7843 121.809 65.082 121.809C47.3796 121.809 33.0409 107.658 33.0409 90.2159Z" stroke="#3190FF" stroke-opacity="0.1"/>
<path d="M26.5328 93.4263C26.5328 75.9846 40.8716 61.8336 58.5739 61.8336C76.2763 61.8336 90.615 75.9846 90.615 93.4263C90.615 110.868 76.2763 125.019 58.5739 125.019C40.8716 125.019 26.5328 110.868 26.5328 93.4263Z" stroke="#3190FF" stroke-opacity="0.1"/>
<path d="M20.0245 95.471C20.0245 78.0293 34.3633 63.8783 52.0656 63.8783C69.768 63.8783 84.1067 78.0293 84.1067 95.471C84.1067 112.913 69.768 127.064 52.0656 127.064C34.3633 127.064 20.0245 112.913 20.0245 95.471Z" stroke="#3190FF" stroke-opacity="0.1"/>
<path d="M13.5165 96.2684C13.5165 78.8267 27.8552 64.6756 45.5576 64.6756C63.2599 64.6756 77.5986 78.8267 77.5986 96.2683C77.5986 113.71 63.2599 127.861 45.5576 127.861C27.8552 127.861 13.5165 113.71 13.5165 96.2684Z" stroke="#3190FF" stroke-opacity="0.1"/>
<path d="M7.00818 95.7869C7.00818 78.3452 21.3469 64.1942 39.0493 64.1942C56.7516 64.1942 71.0903 78.3452 71.0903 95.7869C71.0903 113.229 56.7516 127.38 39.0493 127.38C21.3469 127.38 7.00819 113.229 7.00818 95.7869Z" stroke="#3190FF" stroke-opacity="0.1"/>
<path d="M0.499883 94.0457C0.499881 76.604 14.8386 62.453 32.541 62.453C50.2433 62.453 64.582 76.604 64.582 94.0457C64.582 111.487 50.2433 125.638 32.541 125.638C14.8386 125.638 0.499884 111.487 0.499883 94.0457Z" stroke="#3190FF" stroke-opacity="0.1"/>
</svg>
