<svg width="167" height="19" viewBox="0 0 167 19" fill="none" xmlns="http://www.w3.org/2000/svg">
<path d="M0.75 18C0.616667 18 0.491667 17.95 0.375 17.85C0.275 17.7333 0.225 17.6083 0.225 17.475C0.225 17.3917 0.233333 17.3167 0.25 17.25L6.125 1.2C6.175 1.01667 6.275 0.858332 6.425 0.724999C6.59167 0.574999 6.81667 0.499999 7.1 0.499999H10.8C11.0833 0.499999 11.3 0.574999 11.45 0.724999C11.6167 0.858332 11.725 1.01667 11.775 1.2L17.625 17.25C17.6583 17.3167 17.675 17.3917 17.675 17.475C17.675 17.6083 17.6167 17.7333 17.5 17.85C17.4 17.95 17.275 18 17.125 18H14.05C13.8 18 13.6083 17.9417 13.475 17.825C13.3583 17.6917 13.2833 17.575 13.25 17.475L12.275 14.925H5.6L4.65 17.475C4.61667 17.575 4.54167 17.6917 4.425 17.825C4.30833 17.9417 4.10833 18 3.825 18H0.75ZM6.625 11.325H11.275L8.925 4.725L6.625 11.325ZM19.1455 18C18.9788 18 18.8288 17.9417 18.6955 17.825C18.5788 17.6917 18.5205 17.5417 18.5205 17.375V15.175C18.5205 14.8083 18.7205 14.6 19.1205 14.55C19.6038 14.5 19.9705 14.275 20.2205 13.875C20.4705 13.475 20.6455 12.8833 20.7455 12.1C20.8455 11.3167 20.8955 10.3333 20.8955 9.15V5.625C20.8955 5.44167 20.9538 5.29167 21.0705 5.175C21.2038 5.05833 21.3538 5 21.5205 5H31.3205C31.5038 5 31.6538 5.05833 31.7705 5.175C31.8872 5.29167 31.9455 5.44167 31.9455 5.625V17.375C31.9455 17.5583 31.8872 17.7083 31.7705 17.825C31.6538 17.9417 31.5038 18 31.3205 18H28.3705C28.2038 18 28.0538 17.9417 27.9205 17.825C27.8038 17.7083 27.7455 17.5583 27.7455 17.375V8.275H24.8955V9.6C24.8955 11.2 24.8122 12.5417 24.6455 13.625C24.4788 14.7083 24.1788 15.5667 23.7455 16.2C23.3122 16.8333 22.7205 17.2917 21.9705 17.575C21.2205 17.8583 20.2788 18 19.1455 18ZM35.6205 18C35.4372 18 35.2872 17.9417 35.1705 17.825C35.0538 17.7083 34.9955 17.5583 34.9955 17.375V5.625C34.9955 5.44167 35.0538 5.29167 35.1705 5.175C35.2872 5.05833 35.4372 5 35.6205 5H38.5705C38.7538 5 38.9038 5.05833 39.0205 5.175C39.1538 5.29167 39.2205 5.44167 39.2205 5.625V9H41.5955C43.2622 9 44.5538 9.40833 45.4705 10.225C46.3872 11.025 46.8455 12.1333 46.8455 13.55C46.8455 15 46.3705 16.1083 45.4205 16.875C44.4705 17.625 43.1455 18 41.4455 18H35.6205ZM39.1205 15.125H41.2205C41.8705 15.125 42.3455 15.0083 42.6455 14.775C42.9455 14.525 43.0955 14.1167 43.0955 13.55C43.0955 12.9833 42.9455 12.5583 42.6455 12.275C42.3455 11.9917 41.8705 11.85 41.2205 11.85H39.1205V15.125ZM57.3109 18C57.1276 18 56.9776 17.9417 56.8609 17.825C56.7443 17.7083 56.6859 17.5583 56.6859 17.375V13.825H54.5859V13.7C52.8193 13.7 51.4693 13.3167 50.5359 12.55C49.6026 11.7667 49.1359 10.7083 49.1359 9.375C49.1359 7.94167 49.6026 6.85833 50.5359 6.125C51.4693 5.375 52.7693 5 54.4359 5H60.3609C60.5443 5 60.6943 5.05833 60.8109 5.175C60.9276 5.29167 60.9859 5.44167 60.9859 5.625V17.375C60.9859 17.5583 60.9276 17.7083 60.8109 17.825C60.6943 17.9417 60.5443 18 60.3609 18H57.3109ZM49.2359 18C49.0693 18 48.9359 17.95 48.8359 17.85C48.7359 17.75 48.6859 17.6333 48.6859 17.5C48.6859 17.45 48.6943 17.4 48.7109 17.35C48.7443 17.2833 48.7776 17.2167 48.8109 17.15L51.4859 12.75L55.1359 13.375L52.8109 17.625C52.7443 17.725 52.6609 17.8167 52.5609 17.9C52.4609 17.9667 52.3443 18 52.2109 18H49.2359ZM54.5859 10.95H56.7609V7.875H54.6859C54.0693 7.875 53.6109 7.99167 53.3109 8.225C53.0276 8.45833 52.8859 8.84167 52.8859 9.375C52.8859 9.84167 53.0193 10.225 53.2859 10.525C53.5693 10.8083 54.0026 10.95 54.5859 10.95ZM64.6488 18C64.4655 18 64.3155 17.9417 64.1988 17.825C64.0822 17.7083 64.0238 17.5583 64.0238 17.375V5.625C64.0238 5.44167 64.0822 5.29167 64.1988 5.175C64.3155 5.05833 64.4655 5 64.6488 5H67.5988C67.7655 5 67.9072 5.05833 68.0238 5.175C68.1572 5.29167 68.2238 5.44167 68.2238 5.625V9.775H72.7238V5.625C72.7238 5.44167 72.7822 5.29167 72.8988 5.175C73.0155 5.05833 73.1655 5 73.3488 5H76.2988C76.4655 5 76.6072 5.05833 76.7238 5.175C76.8572 5.29167 76.9238 5.44167 76.9238 5.625V17.375C76.9238 17.5583 76.8572 17.7083 76.7238 17.825C76.6072 17.9417 76.4655 18 76.2988 18H73.3488C73.1655 18 73.0155 17.9417 72.8988 17.825C72.7822 17.7083 72.7238 17.5583 72.7238 17.375V13.05H68.2238V17.375C68.2238 17.5583 68.1572 17.7083 68.0238 17.825C67.9072 17.9417 67.7655 18 67.5988 18H64.6488ZM85.9412 18.25C84.7079 18.25 83.6162 18.025 82.6662 17.575C81.7162 17.125 80.9579 16.475 80.3912 15.625C79.8412 14.7583 79.5412 13.725 79.4912 12.525C79.4745 12.2583 79.4662 11.925 79.4662 11.525C79.4662 11.1083 79.4745 10.7667 79.4912 10.5C79.5412 9.28333 79.8412 8.25 80.3912 7.4C80.9412 6.53333 81.6912 5.875 82.6412 5.425C83.6079 4.975 84.7079 4.75 85.9412 4.75C87.0912 4.75 88.0745 4.91667 88.8912 5.25C89.7079 5.56667 90.3745 5.96667 90.8912 6.45C91.4079 6.93333 91.7912 7.43333 92.0412 7.95C92.3079 8.45 92.4495 8.89167 92.4662 9.275C92.4829 9.44167 92.4245 9.59167 92.2912 9.725C92.1579 9.84167 92.0079 9.9 91.8412 9.9H88.6662C88.4829 9.9 88.3412 9.85833 88.2412 9.775C88.1412 9.69167 88.0495 9.56667 87.9662 9.4C87.7662 8.88333 87.5079 8.51667 87.1912 8.3C86.8912 8.08333 86.4995 7.975 86.0162 7.975C85.3495 7.975 84.8329 8.19167 84.4662 8.625C84.1162 9.05833 83.9245 9.725 83.8912 10.625C83.8745 11.2917 83.8745 11.8833 83.8912 12.4C83.9245 13.3167 84.1162 13.9833 84.4662 14.4C84.8329 14.8167 85.3495 15.025 86.0162 15.025C86.5329 15.025 86.9412 14.9167 87.2412 14.7C87.5412 14.4833 87.7829 14.1167 87.9662 13.6C88.0495 13.4333 88.1412 13.3083 88.2412 13.225C88.3412 13.1417 88.4829 13.1 88.6662 13.1H91.8412C92.0079 13.1 92.1579 13.1667 92.2912 13.3C92.4245 13.4167 92.4829 13.5583 92.4662 13.725C92.4495 14.0083 92.3662 14.3417 92.2162 14.725C92.0662 15.0917 91.8329 15.4833 91.5162 15.9C91.1995 16.3167 90.7829 16.7083 90.2662 17.075C89.7662 17.425 89.1579 17.7083 88.4412 17.925C87.7245 18.1417 86.8912 18.25 85.9412 18.25Z" fill="black"/>
<path d="M99.3096 18C99.1762 18 99.0512 17.95 98.9346 17.85C98.8346 17.7333 98.7846 17.6083 98.7846 17.475C98.7846 17.3917 98.7929 17.3167 98.8096 17.25L104.685 1.2C104.735 1.01667 104.835 0.858332 104.985 0.724999C105.151 0.574999 105.376 0.499999 105.66 0.499999H109.36C109.643 0.499999 109.86 0.574999 110.01 0.724999C110.176 0.858332 110.285 1.01667 110.335 1.2L116.185 17.25C116.218 17.3167 116.235 17.3917 116.235 17.475C116.235 17.6083 116.176 17.7333 116.06 17.85C115.96 17.95 115.835 18 115.685 18H112.61C112.36 18 112.168 17.9417 112.035 17.825C111.918 17.6917 111.843 17.575 111.81 17.475L110.835 14.925H104.16L103.21 17.475C103.176 17.575 103.101 17.6917 102.985 17.825C102.868 17.9417 102.668 18 102.385 18H99.3096ZM105.185 11.325H109.835L107.485 4.725L105.185 11.325ZM118.83 18C118.647 18 118.497 17.9417 118.38 17.825C118.263 17.7083 118.205 17.5583 118.205 17.375V1.125C118.205 0.941666 118.263 0.791666 118.38 0.675C118.497 0.558332 118.647 0.499999 118.83 0.499999H126.455C127.888 0.499999 129.063 0.699999 129.98 1.1C130.897 1.5 131.572 2.075 132.005 2.825C132.455 3.55833 132.68 4.43333 132.68 5.45C132.68 6.05 132.563 6.58333 132.33 7.05C132.113 7.5 131.838 7.875 131.505 8.175C131.188 8.475 130.888 8.69167 130.605 8.825C131.238 9.125 131.797 9.61667 132.28 10.3C132.78 10.9833 133.03 11.7833 133.03 12.7C133.03 13.8 132.78 14.75 132.28 15.55C131.797 16.3333 131.08 16.9417 130.13 17.375C129.197 17.7917 128.047 18 126.68 18H118.83ZM122.68 14.75H126.18C126.897 14.75 127.438 14.5417 127.805 14.125C128.172 13.7083 128.355 13.2333 128.355 12.7C128.355 12.1167 128.163 11.625 127.78 11.225C127.413 10.825 126.88 10.625 126.18 10.625H122.68V14.75ZM122.68 7.45H125.955C126.638 7.45 127.147 7.275 127.48 6.925C127.83 6.575 128.005 6.125 128.005 5.575C128.005 5.04167 127.83 4.60833 127.48 4.275C127.147 3.925 126.638 3.75 125.955 3.75H122.68V7.45ZM140.283 18C140.099 18 139.949 17.9417 139.833 17.825C139.716 17.7083 139.658 17.5583 139.658 17.375V4.425H135.208C135.024 4.425 134.874 4.36667 134.758 4.25C134.641 4.11667 134.583 3.96667 134.583 3.8V1.125C134.583 0.941666 134.641 0.791666 134.758 0.675C134.874 0.558332 135.024 0.499999 135.208 0.499999H148.658C148.841 0.499999 148.991 0.558332 149.108 0.675C149.224 0.791666 149.283 0.941666 149.283 1.125V3.8C149.283 3.96667 149.224 4.11667 149.108 4.25C148.991 4.36667 148.841 4.425 148.658 4.425H144.208V17.375C144.208 17.5583 144.149 17.7083 144.033 17.825C143.916 17.9417 143.766 18 143.583 18H140.283ZM158.705 18.25C157.171 18.25 155.838 18 154.705 17.5C153.571 17 152.688 16.25 152.055 15.25C151.421 14.2333 151.071 12.9667 151.005 11.45C150.988 10.7333 150.98 10.0167 150.98 9.3C150.98 8.58333 150.988 7.85833 151.005 7.125C151.071 5.625 151.421 4.36667 152.055 3.35C152.705 2.31667 153.596 1.54167 154.73 1.025C155.863 0.508333 157.188 0.249999 158.705 0.249999C160.205 0.249999 161.521 0.508333 162.655 1.025C163.805 1.54167 164.705 2.31667 165.355 3.35C166.005 4.36667 166.355 5.625 166.405 7.125C166.438 7.85833 166.455 8.58333 166.455 9.3C166.455 10.0167 166.438 10.7333 166.405 11.45C166.338 12.9667 165.988 14.2333 165.355 15.25C164.721 16.25 163.838 17 162.705 17.5C161.571 18 160.238 18.25 158.705 18.25ZM158.705 14.65C159.588 14.65 160.305 14.3833 160.855 13.85C161.421 13.3167 161.721 12.4667 161.755 11.3C161.788 10.5667 161.805 9.875 161.805 9.225C161.805 8.575 161.788 7.9 161.755 7.2C161.721 6.41667 161.571 5.78333 161.305 5.3C161.055 4.8 160.705 4.43333 160.255 4.2C159.805 3.96667 159.288 3.85 158.705 3.85C158.138 3.85 157.63 3.96667 157.18 4.2C156.73 4.43333 156.371 4.8 156.105 5.3C155.838 5.78333 155.688 6.41667 155.655 7.2C155.638 7.9 155.63 8.575 155.63 9.225C155.63 9.875 155.638 10.5667 155.655 11.3C155.705 12.4667 156.005 13.3167 156.555 13.85C157.105 14.3833 157.821 14.65 158.705 14.65Z" fill="url(#paint0_linear_7_3717)"/>
<defs>
<linearGradient id="paint0_linear_7_3717" x1="0" y1="9" x2="168" y2="9" gradientUnits="userSpaceOnUse">
<stop stop-color="#5433FF"/>
<stop offset="0.5" stop-color="#20BDFF"/>
<stop offset="1" stop-color="#259EA6"/>
</linearGradient>
</defs>
</svg>
