<svg width="25" height="25" viewBox="0 0 25 25" fill="none" xmlns="http://www.w3.org/2000/svg">
<g clip-path="url(#clip0_7_3783)">
<path d="M24.7574 0.562478C24.7147 0.502969 24.6676 0.448228 24.617 0.39692C24.6147 0.394441 24.6128 0.39177 24.6103 0.389481C24.6082 0.387383 24.6058 0.385476 24.6037 0.383378C24.3208 0.103379 23.9273 -0.0488281 23.4718 -0.0488281C23.2134 -0.0488281 22.9359 9.68575e-08 22.6473 0.0963214L1.40187 7.17794C0.277872 7.55273 0.0730221 8.20696 0.0510875 8.56344C0.0289623 8.92012 0.151605 9.59455 1.22049 10.105L6.55535 12.6528L4.16792 18.5482C4.162 18.5625 4.15666 18.577 4.1519 18.5915C3.88658 19.3875 3.99339 20.1031 4.44525 20.5548C4.73383 20.8434 5.12999 20.9912 5.58603 20.9912C5.84391 20.9912 6.12086 20.9439 6.40829 20.8481C6.42298 20.8432 6.43729 20.838 6.45159 20.8321L12.3472 18.4447L14.8949 23.7793C15.3818 24.7988 16.0236 24.9512 16.363 24.9512C16.666 24.9512 17.4149 24.8192 17.8219 23.598L24.9037 2.35253C25.137 1.65272 25.0851 1.017 24.7574 0.562478ZM1.63514 8.66167C1.69313 8.6323 1.76904 8.59987 1.86517 8.56783L22.1619 1.80207L10.7111 13.253C10.2934 12.9017 9.8566 12.6061 9.44232 12.4083L1.85163 8.78298C1.76027 8.7393 1.68912 8.69791 1.63514 8.66167ZM5.92497 19.4651C5.67225 19.5462 5.529 19.5322 5.48323 19.5168C5.46778 19.4708 5.45385 19.3278 5.53492 19.0751L7.87963 13.2853L8.81099 13.7303C9.69752 14.1535 10.8463 15.3025 11.2698 16.1888L11.7147 17.1204L5.92497 19.4651ZM16.4322 23.1348C16.4001 23.2312 16.3677 23.3069 16.3384 23.3649C16.3019 23.3109 16.2603 23.2398 16.2167 23.148L12.5915 15.5575C12.3938 15.1432 12.0981 14.7066 11.7468 14.2887L23.198 2.83776L16.4322 23.1348Z" fill="url(#paint0_linear_7_3783)"/>
</g>
<defs>
<linearGradient id="paint0_linear_7_3783" x1="0.0488281" y1="12.4512" x2="25.0475" y2="12.4512" gradientUnits="userSpaceOnUse">
<stop stop-color="#5433FF"/>
<stop offset="0.5" stop-color="#20BDFF"/>
<stop offset="1" stop-color="#259EA6"/>
</linearGradient>
<clipPath id="clip0_7_3783">
<rect width="25" height="25" fill="white"/>
</clipPath>
</defs>
</svg>
