<svg width="25" height="25" viewBox="0 0 25 25" fill="none" xmlns="http://www.w3.org/2000/svg">
<g clip-path="url(#clip0_7_3756)">
<path d="M24.6876 10.0331L21.0449 6.99741V3.27148C21.0449 2.86699 20.717 2.53906 20.3125 2.53906H15.7029L12.9797 0.178952C12.7043 -0.059671 12.2956 -0.059671 12.0203 0.178952L9.29712 2.53906H4.6875C4.28301 2.53906 3.95508 2.86699 3.95508 3.27148V6.99741L0.312354 10.0331C0.14541 10.1722 0.0488281 10.3783 0.0488281 10.5957V24.2676C0.0488281 24.6721 0.376758 25 0.78125 25H24.2188C24.6232 25 24.9512 24.6721 24.9512 24.2676V10.5957C24.9512 10.3783 24.8546 10.1722 24.6876 10.0331ZM8.37729 17.4316L1.51367 22.7701V12.0932L8.37729 17.4316ZM9.82158 18.1641H15.1784L22.0841 23.5352H2.91592L9.82158 18.1641ZM16.6227 17.4316L23.4863 12.0932V22.7701L16.6227 17.4316ZM23.0511 10.576L21.0449 12.1364V8.9042L23.0511 10.576ZM12.5 1.70166L13.4663 2.53906H11.5337L12.5 1.70166ZM19.5801 4.0039V13.2757L15.1784 16.6992H9.82158L5.41992 13.2757V4.0039H19.5801ZM3.95508 12.1364L1.94893 10.576L3.95508 8.90424V12.1364Z" fill="url(#paint0_linear_7_3756)"/>
<path d="M9.22809 14.587C10.1275 15.2878 11.248 15.691 12.383 15.7224C12.3899 15.7226 12.3967 15.7227 12.4036 15.7227C12.7987 15.7227 13.1244 15.408 13.1354 15.0105C13.1465 14.6061 12.8278 14.2692 12.4235 14.2581C10.7018 14.2104 9.19264 13.0112 8.75357 11.3416C8.22481 9.3312 9.36349 7.26206 11.3459 6.631C12.3516 6.31088 13.4193 6.40512 14.3521 6.89643C15.2817 7.38593 15.9617 8.20815 16.268 9.2124C16.4588 9.93681 16.394 10.6141 16.0518 11.4743C15.9675 11.6863 15.7076 12.1794 15.1166 12.1794C15.0512 12.1794 14.993 12.1307 14.9642 12.1017C14.8808 12.0179 14.8314 11.8932 14.832 11.7683L14.8522 7.69921C14.8542 7.29472 14.5278 6.96518 14.1233 6.96318C14.1221 6.96318 14.1209 6.96318 14.1196 6.96318C13.7623 6.96318 13.4647 7.21967 13.4006 7.55917C13.0702 7.3854 12.7025 7.29316 12.3155 7.29316C11.6119 7.29316 10.9229 7.60937 10.425 8.16064C9.92008 8.71967 9.64205 9.48027 9.64205 10.3022C9.64205 11.1206 9.90338 11.8894 10.3778 12.4671C10.87 13.0663 11.5583 13.41 12.2662 13.41C12.8081 13.41 13.3059 13.2167 13.7164 12.8829C13.7788 12.9726 13.8484 13.0573 13.9258 13.135C14.2526 13.4635 14.6755 13.6443 15.1166 13.6443C16.3322 13.6443 17.0999 12.8031 17.413 12.0157C17.8762 10.851 17.9587 9.86635 17.6803 8.82338C17.6783 8.81577 17.6761 8.80815 17.6738 8.80063C17.2549 7.41259 16.3177 6.27607 15.0347 5.60039C13.7519 4.92475 12.284 4.79511 10.9015 5.23525C9.59112 5.65239 8.50108 6.55141 7.83219 7.76674C7.16305 8.98247 6.98712 10.3844 7.33688 11.7143C7.63976 12.8657 8.29371 13.859 9.22809 14.587ZM12.2662 11.9451C11.7064 11.9451 11.1069 11.285 11.1069 10.3022C11.1069 9.33564 11.7214 8.758 12.3155 8.758C12.9204 8.758 13.3486 9.34824 13.3749 10.2039L13.374 10.388C13.3392 11.2553 12.8558 11.9451 12.2662 11.9451Z" fill="url(#paint1_linear_7_3756)"/>
</g>
<defs>
<linearGradient id="paint0_linear_7_3756" x1="0.0488281" y1="12.5" x2="24.9512" y2="12.5" gradientUnits="userSpaceOnUse">
<stop stop-color="#5433FF"/>
<stop offset="0.5" stop-color="#20BDFF"/>
<stop offset="1" stop-color="#259EA6"/>
</linearGradient>
<linearGradient id="paint1_linear_7_3756" x1="7.16113" y1="10.3508" x2="17.8403" y2="10.3508" gradientUnits="userSpaceOnUse">
<stop stop-color="#5433FF"/>
<stop offset="0.5" stop-color="#20BDFF"/>
<stop offset="1" stop-color="#259EA6"/>
</linearGradient>
<clipPath id="clip0_7_3756">
<rect width="25" height="25" fill="white"/>
</clipPath>
</defs>
</svg>
