<svg width="49" height="107" viewBox="0 0 49 107" fill="none" xmlns="http://www.w3.org/2000/svg">
<g clip-path="url(#clip0_16_165)">
<path d="M22.5103 19.2266C22.5103 19.2266 42.052 30.8218 38.3438 58.0625C38.3438 58.0625 43.6938 54.5307 45.4643 50.2883C45.4643 50.2883 50.2032 64.1766 43.1454 76.1063C37.9743 84.8477 27.8076 89.5322 17.9327 87.1582C14.8944 86.4201 12.0227 85.1156 9.46801 83.3129C-4.25892 73.7297 0.0887902 56.1399 3.07309 51.1953C3.07309 51.1953 8.12382 41.3705 7.80449 34.5928C10.5365 36.79 13.0425 39.2543 15.2853 41.949C15.2853 41.949 22.8514 34.6571 22.5103 19.2266Z" fill="url(#paint0_linear_16_165)"/>
<path d="M26.154 43.2882C26.154 43.2882 34.1891 55.1167 32.228 67.7335C33.4036 67.4618 34.4773 66.8602 35.323 65.9994C36.1686 65.1387 36.7511 64.0545 37.002 62.8742C37.002 62.8742 42.6931 76.4298 31.5784 83.761C29.5281 85.1335 27.143 85.9224 24.6786 86.0431C22.5895 86.1359 20.5053 85.7702 18.5726 84.9715C16.6399 84.1729 14.9055 82.9608 13.4913 81.4203C10.8396 78.6529 9.37376 74.9592 9.40604 71.1266C9.46255 68.5844 10.1435 66.0952 11.3889 63.8782C12.815 61.2692 15.2058 56.5746 15.6045 53.7508C15.6045 53.7508 18.3539 54.7974 20.1445 59.8481C20.1445 59.8481 26.1749 55.0315 26.154 43.2882V43.2882Z" fill="#F6C863"/>
<path d="M29.9233 80.3419C29.722 81.1511 29.3539 81.9093 28.8428 82.5681C28.3316 83.2269 27.6885 83.7717 26.9547 84.1678C26.2209 84.5638 25.4125 84.8023 24.5813 84.8679C23.75 84.9336 22.9142 84.8251 22.1273 84.5492C20.7436 84.0205 19.5959 83.012 18.8937 81.7076C18.1915 80.4033 17.9815 78.89 18.3021 77.4437C18.7543 74.8709 19.8198 72.445 21.4085 70.3714C22.9973 68.2978 25.0623 66.6377 27.4288 65.5316C27.4288 65.5316 25.1835 70.4854 27.81 73.427C28.7507 74.2837 29.4433 75.3779 29.8151 76.5946C30.187 77.8114 30.2243 79.1058 29.9233 80.3419Z" fill="#EEEFEE"/>
</g>
<defs>
<linearGradient id="paint0_linear_16_165" x1="-0.0202637" y1="53.4994" x2="47.0212" y2="53.4994" gradientUnits="userSpaceOnUse">
<stop stop-color="#5433FF"/>
<stop offset="0.5" stop-color="#20BDFF"/>
<stop offset="1" stop-color="#259EA6"/>
</linearGradient>
<clipPath id="clip0_16_165">
<rect width="49" height="107" fill="white"/>
</clipPath>
</defs>
</svg>
