<svg width="101" height="107" viewBox="0 0 101 107" fill="none" xmlns="http://www.w3.org/2000/svg">
<path d="M72.4539 37.1396H81.6562V58.4255H72.4539V37.1396Z" fill="#F7BE56"/>
<path d="M92.3539 52.6694C91.6464 51.8909 90.8139 51.2345 89.8905 50.7288L81.6562 46.8663C81.6554 46.8668 81.6553 46.8668 81.6545 46.8673C81.5645 47.8252 81.1346 48.7431 80.4012 49.365C78.5055 50.9723 75.6488 50.9848 73.7382 49.4015C73.0112 48.799 72.5703 47.9169 72.455 46.9798L72.4539 46.9714L64.2168 50.7288C63.2934 51.2345 62.4609 51.8909 61.7563 52.6694C60.1737 54.411 59.2986 56.6784 59.2986 59.0309V66.3516C59.2986 68.2119 60.8067 69.72 62.667 69.72H91.4431C93.3035 69.72 94.8116 68.2119 94.8116 66.3516V59.0309C94.8116 56.6784 93.9365 54.411 92.3539 52.6694Z" fill="url(#paint0_linear_21_201)"/>
<path d="M77.0553 48.3251C81.2043 48.3251 84.5677 43.7867 84.5677 38.1883C84.5677 32.5899 81.2043 28.0515 77.0553 28.0515C72.9064 28.0515 69.543 32.5899 69.543 38.1883C69.543 43.7867 72.9064 48.3251 77.0553 48.3251Z" fill="#FCD462"/>
<path d="M85.6344 33.3367C85.0367 28.9716 84.0694 26.4802 83.1847 25.2047C82.3 23.9292 81.9815 25.1154 81.9815 25.1154C81.9815 25.1154 81.6105 23.1292 76.3116 23.888C71.0127 24.6469 68.3126 31.5325 67.7241 35.5791C67.3433 38.1978 68.0788 40.4297 68.6462 41.6832C68.6684 42.0917 68.854 43.508 68.8232 43.8618C68.7329 44.8986 69.5019 45.8071 70.5397 45.8842C71.5536 45.9595 72.4178 45.1577 72.4187 44.141C72.3015 43.4887 72.0646 42.8625 71.7182 42.2975C71.3593 41.712 71.0527 41.1839 71.0527 41.1839C71.0527 41.1839 69.6043 35.085 73.0952 33.8462C76.5862 32.6075 77.8275 32.1812 77.8275 32.1812C77.8466 32.7011 74.8125 35.319 74.8125 35.319C81.2175 34.4305 82.6913 31.8508 82.6913 31.8508C82.6913 31.8508 83.7264 34.981 83.5651 37.9305C83.4039 40.8799 82.2623 43.7363 82.3199 44.1864C82.4673 45.3378 83.6484 46.1345 84.8526 45.82C85.6883 45.6018 86.2678 44.8397 86.3333 43.9785C86.3555 43.6889 86.3799 43.3894 86.409 43.0792C86.6828 40.168 86.2322 37.7018 85.6344 33.3367Z" fill="#3A556A"/>
<path d="M13.3438 37.1396H22.5461V58.4256H13.3438V37.1396Z" fill="#F7BE56"/>
<path d="M33.2438 52.6694C32.5363 51.891 31.7038 51.2346 30.7804 50.7289L22.5461 46.8664C22.5453 46.8668 22.5452 46.8669 22.5444 46.8674C22.4544 47.8253 22.0245 48.7432 21.2911 49.365C19.3954 50.9723 16.5387 50.9849 14.6281 49.4015C13.9011 48.7991 13.4602 47.917 13.3449 46.9799L13.3438 46.9715L5.10674 50.7289C4.18329 51.2346 3.35083 51.891 2.64621 52.6694C1.06361 54.4111 0.188477 56.6784 0.188477 59.031V66.3516C0.188477 68.212 1.69659 69.7201 3.55694 69.7201H32.333C34.1933 69.7201 35.7015 68.212 35.7015 66.3516V59.031C35.7015 56.6784 34.8264 54.4111 33.2438 52.6694Z" fill="url(#paint1_linear_21_201)"/>
<path d="M25.4577 38.1881C25.4577 43.7864 22.0942 48.3248 17.9451 48.3248C13.7959 48.3248 10.4324 43.7864 10.4324 38.1881C10.4324 32.5897 14.1573 26.9255 18.3064 26.9255C22.4556 26.9255 25.4577 32.5897 25.4577 38.1881Z" fill="#FCD462"/>
<path d="M32.5874 39.5569C31.1099 41.5977 27.8473 40.4153 28.0485 37.9038C28.1405 36.7556 28.1324 35.447 27.9073 33.8029C27.3095 29.4378 26.3423 26.9464 25.4575 25.6709C24.5729 24.3954 22.8712 25.1154 22.8712 25.1154C22.8712 25.1154 22.5002 23.1292 17.2013 23.888C11.9025 24.6469 9.20238 31.5325 8.61383 35.5791C8.49144 36.421 8.48452 37.2214 8.55032 37.9618C8.76821 40.4138 5.56302 41.6601 4.07938 39.6958C3.81422 39.3447 3.54867 38.9349 3.28516 38.4583C3.28516 38.4583 3.95569 54.6053 14.2653 47.0563L13.1609 44.8411C12.1492 42.704 11.9425 41.1839 11.9425 41.1839C11.9425 41.1839 10.2856 33.6574 13.985 33.8462C22.0736 34.259 22.8166 30.2107 22.8166 30.2107C22.8166 30.2107 24.542 34.9779 24.4548 37.9305C24.3671 40.8997 24.2057 42.2628 23.8286 43.4959C23.5168 44.5153 22.9988 45.4596 22.3394 46.2971L22.0141 46.7103C32.3237 54.2593 33.2789 38.4583 33.2789 38.4583C33.0494 38.8734 32.8184 39.2378 32.5874 39.5569Z" fill="#3A556A"/>
<path d="M53.5331 56.2303L47.5204 58.2485L41.9727 56.2303V40.5027H53.5331V56.2303Z" fill="#F7BE56"/>
<path d="M66.9727 60.0121C66.0839 59.0341 65.0382 58.2096 63.8781 57.5742L56.4324 53.4944L55.2152 52.827L54.5049 52.9662C54.4902 53.0842 54.4741 53.2116 54.4568 53.3465L47.5642 58.059L41.0614 53.3821C41.0426 53.2353 41.025 53.097 41.0092 52.9698L40.2917 52.827L39.0924 53.4837L31.6253 57.5742C30.4653 58.2096 29.4194 59.0341 28.5342 60.0121C26.5461 62.2 25.4468 65.0484 25.4468 68.0039V82.0497C25.4468 84.3874 27.3419 86.2826 29.6796 86.2826H65.8273C68.1651 86.2826 70.0602 84.3874 70.0602 82.0497V68.0039C70.0602 65.0484 68.9608 62.2 66.9727 60.0121Z" fill="#27A2DB"/>
<path d="M53.5332 49.8763L48.7739 56.4251L52.5575 60.5041L55.2144 52.8285L53.5332 49.8763Z" fill="url(#paint2_linear_21_201)"/>
<path d="M41.9334 49.8763L46.6927 56.4251L42.9091 60.5041L40.2522 52.8285L41.9334 49.8763Z" fill="url(#paint3_linear_21_201)"/>
<path d="M57.7638 38.0064C57.9681 36.7617 57.6498 35.6732 57.0529 35.5752C56.4559 35.4772 55.8064 36.4068 55.6021 37.6516C55.3978 38.8963 55.7161 39.9848 56.313 40.0828C56.9099 40.1808 57.5595 39.2511 57.7638 38.0064Z" fill="#FCD462"/>
<path d="M39.1936 40.0609C39.7967 40.0174 40.212 38.9626 40.1212 37.705C40.0303 36.4473 39.4678 35.4632 38.8647 35.5067C38.2616 35.5503 37.8463 36.6051 37.9372 37.8627C38.028 39.1203 38.5905 40.1045 39.1936 40.0609Z" fill="#FCD462"/>
<path d="M56.2325 40.2227L55.8918 30.1663L54.6994 26.9238L47.7308 25.0441L40.7622 26.9238L39.5698 30.1663L39.2291 40.2227C39.2291 40.2227 38.8317 42.6664 39.7402 44.4521C40.6487 46.2378 41.5004 47.0533 42.6928 48.2433C43.8852 49.4333 45.4439 49.8023 47.7308 49.8763C50.0177 49.8023 51.5764 49.4333 52.7688 48.2433C53.9612 47.0533 54.8129 46.2378 55.7214 44.4521C56.6299 42.6664 56.2325 40.2227 56.2325 40.2227Z" fill="#FCD462"/>
<path d="M46.6522 61.2896V76.0266H48.3887V61.2896C48.6152 57.6872 49.8744 56.6696 49.8744 56.6696L49.1437 55.8818L47.5916 57.7353L46.2863 55.8818L45.1665 56.6696C45.1665 56.6696 46.4258 57.6872 46.6522 61.2896Z" fill="url(#paint4_linear_21_201)"/>
<path d="M48.1692 28.8815C48.585 28.8085 50.5472 28.4762 52.1993 28.8815C53.8515 29.2868 55.0448 31.3134 54.9959 31.545C54.9471 31.7766 54.2212 32.5872 54.505 33.8032C54.7888 35.0191 55.2268 38.2836 55.2268 38.2836C55.2268 38.2836 55.4456 35.3665 56.2991 36.235C57.1526 37.1035 57.1372 38.1458 56.6474 39.0143C56.1575 39.8828 56.0467 41.6327 56.0467 41.6327C56.0467 41.6327 58.6165 38.609 58.6617 36.8719C58.7069 35.1349 60.1766 35.3665 58.4922 32.7609C58.4922 32.7609 59.5744 30.6765 57.8458 28.4183C57.8458 28.4183 57.4415 25.6969 56.3865 24.1915C55.3315 22.6861 53.0451 21.0648 51.8817 21.1806C50.7184 21.2964 50.9281 20.7174 49.6431 20.7174C48.3582 20.7174 48.146 21.2385 47.221 21.4701C46.2961 21.7017 44.7953 20.7174 42.9788 21.9912C41.1622 23.2651 41.2302 23.4967 40.5043 24.3073C39.7785 25.1179 41.2721 25.9285 38.6819 26.855C36.0918 27.7814 37.7526 32.6451 37.7526 32.6451C37.7526 32.6451 36.7184 34.2664 37.4603 35.3665C37.8196 35.8993 37.4724 38.0688 37.9265 39.2211C38.41 40.4482 39.1506 41.11 39.1506 41.11C39.1506 41.11 39.4473 40.5155 39.3771 39.5136C39.2575 37.8073 38.8604 35.3687 39.8255 35.9296C40.7789 36.4838 41.0025 38.8661 41.0025 38.8661C41.0025 38.8661 41.0534 34.7875 41.6946 33.3399C41.6946 33.3399 40.8076 31.6608 42.2033 30.0975C43.599 28.5341 43.1424 27.3761 44.6897 28.0709C46.237 28.7657 47.4741 29.0035 48.1692 28.8815Z" fill="#3A556A"/>
<defs>
<linearGradient id="paint0_linear_21_201" x1="59.2986" y1="58.2932" x2="94.8116" y2="58.2932" gradientUnits="userSpaceOnUse">
<stop stop-color="#5433FF"/>
<stop offset="0.5" stop-color="#20BDFF"/>
<stop offset="1" stop-color="#259EA6"/>
</linearGradient>
<linearGradient id="paint1_linear_21_201" x1="0.188477" y1="58.2932" x2="35.7015" y2="58.2932" gradientUnits="userSpaceOnUse">
<stop stop-color="#5433FF"/>
<stop offset="0.5" stop-color="#20BDFF"/>
<stop offset="1" stop-color="#259EA6"/>
</linearGradient>
<linearGradient id="paint2_linear_21_201" x1="48.7739" y1="55.1902" x2="55.2144" y2="55.1902" gradientUnits="userSpaceOnUse">
<stop stop-color="#5433FF"/>
<stop offset="0.5" stop-color="#20BDFF"/>
<stop offset="1" stop-color="#259EA6"/>
</linearGradient>
<linearGradient id="paint3_linear_21_201" x1="40.2522" y1="55.1902" x2="46.6927" y2="55.1902" gradientUnits="userSpaceOnUse">
<stop stop-color="#5433FF"/>
<stop offset="0.5" stop-color="#20BDFF"/>
<stop offset="1" stop-color="#259EA6"/>
</linearGradient>
<linearGradient id="paint4_linear_21_201" x1="45.1665" y1="65.9542" x2="49.8744" y2="65.9542" gradientUnits="userSpaceOnUse">
<stop stop-color="#5433FF"/>
<stop offset="0.5" stop-color="#20BDFF"/>
<stop offset="1" stop-color="#259EA6"/>
</linearGradient>
</defs>
</svg>
